<svg id="Group_29" data-name="Group 29" xmlns="http://www.w3.org/2000/svg" xmlns:xlink="http://www.w3.org/1999/xlink" width="239.736" height="239.738" viewBox="0 0 239.736 239.738">
  <defs>
    <clipPath id="clip-path">
      <rect id="Rectangle_114" data-name="Rectangle 114" width="239.736" height="239.738" fill="none"/>
    </clipPath>
  </defs>
  <g id="Group_28" data-name="Group 28" clip-path="url(#clip-path)">
    <path id="Path_28" data-name="Path 28" d="M119.868,5.859a114.008,114.008,0,1,1-114.007,114,114.013,114.013,0,0,1,114.007-114m0-5.859A119.869,119.869,0,1,0,239.736,119.861,120,120,0,0,0,119.868,0" fill="#fff"/>
    <path id="Path_29" data-name="Path 29" d="M64.8,53.482l-2.592.911-.535-2.615,3.869-1.566h1.77V68.66H64.8Z" fill="#fff"/>
    <path id="Path_30" data-name="Path 30" d="M75.442,68.973a5.184,5.184,0,0,1-2.592-.61A8.841,8.841,0,0,1,70.83,66.8l1.38-2.46A6.5,6.5,0,0,0,73.8,65.65a3.556,3.556,0,0,0,1.7.418,2.541,2.541,0,0,0,1.429-.418A3.568,3.568,0,0,0,78,64.457a6.885,6.885,0,0,0,.69-1.849,11.574,11.574,0,0,0,.286-2.322,4.691,4.691,0,0,1-1.365,1.388,3.572,3.572,0,0,1-2.006.543,5.183,5.183,0,0,1-2.087-.4,4.492,4.492,0,0,1-1.61-1.167,5.429,5.429,0,0,1-1.039-1.827A7.431,7.431,0,0,1,70.5,56.41v-.049a7.772,7.772,0,0,1,.391-2.5,6.228,6.228,0,0,1,1.1-2.015,5.091,5.091,0,0,1,1.7-1.331,5.427,5.427,0,0,1,4.473,0,5.148,5.148,0,0,1,1.7,1.45,7.663,7.663,0,0,1,1.276,2.661,15.973,15.973,0,0,1,.473,4.328V59a18.178,18.178,0,0,1-.42,4.042A10.843,10.843,0,0,1,79.98,66.2a6.231,6.231,0,0,1-1.946,2.045,4.78,4.78,0,0,1-2.592.728m.526-9.446a2.762,2.762,0,0,0,2.157-.982A3.147,3.147,0,0,0,78.7,57.5a3.9,3.9,0,0,0,.2-1.274v-.047a3.626,3.626,0,0,0-.816-2.413,2.983,2.983,0,0,0-3.406-.706,2.639,2.639,0,0,0-.9.733,3.488,3.488,0,0,0-.571,1.084,4.39,4.39,0,0,0-.193,1.324v.055a3.487,3.487,0,0,0,.789,2.357,2.754,2.754,0,0,0,2.165.914" fill="#fff"/>
    <path id="Path_31" data-name="Path 31" d="M88.939,68.973a5.2,5.2,0,0,1-2.6-.61A9.052,9.052,0,0,1,84.326,66.8l1.382-2.46a6.456,6.456,0,0,0,1.6,1.312,3.523,3.523,0,0,0,1.7.418,2.524,2.524,0,0,0,1.429-.418A3.588,3.588,0,0,0,91.5,64.457a6.919,6.919,0,0,0,.688-1.849,11.942,11.942,0,0,0,.288-2.322,4.692,4.692,0,0,1-1.369,1.388,3.583,3.583,0,0,1-2.007.543,5.214,5.214,0,0,1-2.09-.4,4.532,4.532,0,0,1-1.6-1.167,5.4,5.4,0,0,1-1.04-1.827A7.405,7.405,0,0,1,84,56.41v-.049a7.827,7.827,0,0,1,.392-2.5,6.28,6.28,0,0,1,1.1-2.015,5.1,5.1,0,0,1,1.7-1.331,4.848,4.848,0,0,1,2.179-.482,4.924,4.924,0,0,1,2.295.482,5.138,5.138,0,0,1,1.7,1.45,7.864,7.864,0,0,1,1.278,2.661,16.192,16.192,0,0,1,.47,4.328V59a18.3,18.3,0,0,1-.42,4.042A10.731,10.731,0,0,1,93.476,66.2a6.164,6.164,0,0,1-1.947,2.045,4.749,4.749,0,0,1-2.59.728m.526-9.446a2.825,2.825,0,0,0,1.229-.265,2.772,2.772,0,0,0,.929-.717A3.169,3.169,0,0,0,92.2,57.5a3.954,3.954,0,0,0,.2-1.274v-.047a3.613,3.613,0,0,0-.82-2.413,2.978,2.978,0,0,0-3.4-.706,2.67,2.67,0,0,0-.9.733,3.445,3.445,0,0,0-.57,1.084,4.328,4.328,0,0,0-.193,1.324v.055a3.468,3.468,0,0,0,.792,2.357,2.739,2.739,0,0,0,2.159.914" fill="#fff"/>
    <path id="Path_32" data-name="Path 32" d="M103.219,68.973a4.805,4.805,0,0,1-4.013-1.909,7.272,7.272,0,0,1-.733-1.167,8.4,8.4,0,0,1-.546-1.475,13.941,13.941,0,0,1-.347-1.91,21.612,21.612,0,0,1-.122-2.459v-.061a18.607,18.607,0,0,1,.389-3.906,10.9,10.9,0,0,1,1.163-3.163,6.133,6.133,0,0,1,1.934-2.123,4.708,4.708,0,0,1,2.688-.769,5.209,5.209,0,0,1,2.426.526,7.973,7.973,0,0,1,1.977,1.493l-1.361,2.475a7.761,7.761,0,0,0-1.47-1.177,3.207,3.207,0,0,0-1.658-.416,2.468,2.468,0,0,0-1.429.434,3.523,3.523,0,0,0-1.059,1.224,7.164,7.164,0,0,0-.68,1.854,12.229,12.229,0,0,0-.288,2.319c.2-.221.4-.451.617-.673a3.5,3.5,0,0,1,.75-.59,4.47,4.47,0,0,1,.928-.406,3.811,3.811,0,0,1,1.141-.161,5.155,5.155,0,0,1,1.965.377,4.534,4.534,0,0,1,1.608,1.131,5.322,5.322,0,0,1,1.079,1.817,7.109,7.109,0,0,1,.389,2.433v.052a7.456,7.456,0,0,1-.409,2.516,6.242,6.242,0,0,1-1.133,1.979,5.268,5.268,0,0,1-1.7,1.281,4.934,4.934,0,0,1-2.109.454m-.051-2.773a2.864,2.864,0,0,0,1.22-.25,2.462,2.462,0,0,0,.906-.71,3.13,3.13,0,0,0,.565-1.055,4.162,4.162,0,0,0,.2-1.312v-.045a3.333,3.333,0,0,0-.8-2.293,2.74,2.74,0,0,0-2.16-.9,2.807,2.807,0,0,0-1.215.256,2.95,2.95,0,0,0-.919.694,3.238,3.238,0,0,0-.59,1.024,3.72,3.72,0,0,0-.207,1.244V62.9a3.825,3.825,0,0,0,.218,1.314,3.426,3.426,0,0,0,.6,1.045,2.6,2.6,0,0,0,.94.691,2.986,2.986,0,0,0,1.24.25" fill="#fff"/>
    <path id="Path_33" data-name="Path 33" d="M117.2,48.549V66.485c0,2.661-.377,5.632.267,8.068a21.357,21.357,0,0,1-1.846-1.229c-.679-.528-2-1.229-2.256-1.911-.539-1.43,0-3.2,0-4.649V47.638c0-2.048.258.484-.256-1.347a9.9,9.9,0,0,0,4.091,2.258" fill="#fff"/>
    <path id="Path_34" data-name="Path 34" d="M116.41,75.445a61.714,61.714,0,0,0-9.261-.072c-3.761.145-7.83-.066-11.378.072-1.874.073-5.014.092-6.373.23-.429.041,0,0-.369.124a24.171,24.171,0,0,1-3.175.532,3.969,3.969,0,0,1,2.917-3.074c3.707-1.33,11.112-.442,16.926-.752a27.747,27.747,0,0,0,5.811-1.03c1.456,1.407,3.295,2.658,4.9,3.97" fill="#fff"/>
    <path id="Path_35" data-name="Path 35" d="M58.88,71.618a37.619,37.619,0,0,0,5.687.958c5.442.322,12.843-.61,16.657.546,2.177.653,3.278,1.727,3.446,3.209a18.566,18.566,0,0,1-3.308-.611,22.087,22.087,0,0,0-2.264-.291c-.188-.013,0,0-.251.016-5.5.38-12.233,0-17.845,0a34.792,34.792,0,0,0-7.021.354c1.689-1.406,3.631-2.568,4.9-4.181" fill="#fff"/>
    <path id="Path_36" data-name="Path 36" d="M53.332,74.008c.542-2.228.134-4.887.134-7.244V48.615a8.1,8.1,0,0,0,3.289-1.5,1.6,1.6,0,0,1,.665-.461c.4-.121,0,3.518,0,5.24V66.559c0,1.523.566,3.361,0,4.854a18.234,18.234,0,0,1-3.954,3.273c-.412.1-.186-.512-.134-.678" fill="#fff"/>
    <path id="Path_37" data-name="Path 37" d="M178.83,36.027c-25.156,0-47.094-15.468-58.952-35.133-11.859,19.665-33.843,35.133-58.99,35.133a70.077,70.077,0,0,1-20.432-3.032v86.96a79.752,79.752,0,0,0,1.172,13.528,21.577,21.577,0,0,1,5.239-5.83,23.2,23.2,0,0,1,5.749-3.067,14.068,14.068,0,0,1,7.9-.38c5.861,1.484,9.692,5.827,11.873,9.206a12.987,12.987,0,0,0,3.158,3.36,8.228,8.228,0,0,0,.815.5,4.045,4.045,0,0,1,1.646,1.412,52.222,52.222,0,0,1,2.173,6.4l.329,1.084c1.374,3.54,2.009,5.856,1.929,6.97-.152,2.018-1.891,3.029-2.824,3.582l-.226.132a1.009,1.009,0,0,1-.144.069c-7.39,2.835-9.5,3.321-12.909,3.553h-.063a.9.9,0,0,1-.547-1.608,10.681,10.681,0,0,1,2.838-1.151,62.286,62.286,0,0,0,9.173-3.67c.636-.36,1.209-.677.622-2.837a41.116,41.116,0,0,0-2.148-5.5c-.205-.392-.425-.869-.652-1.355-.608-1.309-1.3-2.8-2.082-3.324l-.42-.342A21.952,21.952,0,0,1,68.2,135.74c-1.445-2.249-4.513-6.219-8.849-7.533-2.983-1-6.473-.278-10.561,2.075a20.67,20.67,0,0,0-6.483,6.7,79.239,79.239,0,0,0,20.908,38.606c8.612-8.183,26.659-23.732,29.8-22.261,1.376.659,2.648,1.993,2.409,3.279a6.171,6.171,0,0,1-.2.79,2.526,2.526,0,0,1,2.548,2.1c.636,1.865-.565,3.366-1.355,4.355a6.783,6.783,0,0,0-.607.84c2.133,4.012.511,7.583-4.95,10.893a26.588,26.588,0,0,1-9.257,3.282c-2.075.409-5.761,2.741-8.755,5.082a78.928,78.928,0,0,0,36.79,14.749,36.716,36.716,0,0,0-3.778-6.2,21.68,21.68,0,0,0-1.555-1.671c-2.428-2.434-5.444-5.464-4.828-12.711.364-4.325,6.087-9.513,12.213-14.233l4.767,1.461c-1.584,1.619-3.145,3.088-4.531,4.39-7.224,6.732-10.525,9.813-2.837,18.888,1.408,1.659,3.451,5.921,5.341,10.551,1.8.122,3.619.208,5.458.208A79.05,79.05,0,0,0,172.971,179a19.149,19.149,0,0,1-4.312-6.149c-2.374-5.155-2.9-12.259-3.6-20.3-.725-8.042-1.886-17.433-6.3-26.95a57.066,57.066,0,0,0-3.879-7.133l2.8-2.909a55.532,55.532,0,0,1,5.085,9.688c4.31,10.4,4.763,20,4.874,27.928.046,7.932-.067,14.661,1.757,19.637a17.771,17.771,0,0,0,3.668,6.1,79.249,79.249,0,0,0,26.209-58.963V32.992a70.068,70.068,0,0,1-20.449,3.035m-46.464,5.182a.679.679,0,0,1-.09-.794.67.67,0,0,1,.73-.326l6.151,1.359,1.891-6a.669.669,0,0,1,1.282,0l1.886,6,6.151-1.359a.668.668,0,0,1,.732.326.676.676,0,0,1-.09.794l-4.262,4.632,4.262,4.632a.676.676,0,0,1-.642,1.119l-6.151-1.369-1.886,6a.67.67,0,0,1-1.282,0l-1.889-6-6.153,1.369a.676.676,0,0,1-.64-1.119l4.26-4.632ZM148.258,75.78a.677.677,0,0,1-.646,1.117L142.9,75.845l-1.444,4.609a.672.672,0,0,1-1.286,0l-1.447-4.609L134.015,76.9a.676.676,0,0,1-.646-1.117l3.264-3.551-3.264-3.559a.674.674,0,0,1,.646-1.112l4.711,1.047,1.447-4.6a.672.672,0,0,1,1.286,0l1.442,4.6,4.711-1.047a.674.674,0,0,1,.646,1.112l-3.263,3.559ZM112.374,22.559a.675.675,0,0,1,.646-1.112l4.709,1.052,1.452-4.608a.67.67,0,0,1,.643-.477.678.678,0,0,1,.644.477l1.441,4.6,4.705-1.046a.674.674,0,0,1,.647,1.112L124,26.114l3.262,3.558a.677.677,0,0,1-.647,1.115l-4.705-1.049-1.441,4.6a.68.68,0,0,1-.644.476.673.673,0,0,1-.643-.476l-1.452-4.6-4.709,1.049a.677.677,0,0,1-.646-1.115l3.263-3.558ZM50.82,78.083c-.52,0-.033-6.624-.033-12.935,0-2.585-.617-17.944-.124-17.944a17.577,17.577,0,0,1,3.851-.049c1.068-.8,2.381-1.534,3.306-2.386a27.7,27.7,0,0,0,6.873,1.159c9.225.353,19.676-1.872,20.506,3.485,1.606-5.4,10.656-3.1,20.5-3.553a36.423,36.423,0,0,0,7.134-1.164c1.061.8,2.225,1.536,3.309,2.331,1.073-.09,3.705-.374,3.705-.073.155,0-.1,12.52-.028,17.72.089,5.845.486,13.409.028,13.409,0,.577-11.911,0-18.379,0a79.486,79.486,0,0,1-9.579-.272c-.335,2.372-1.032,3.286-6.388,3.283-5.8-.008-7.232-1.894-6.737-3.078-2.322.233-5.948.067-9.163.067-6.267,0-18.779.305-18.779,0M60.4,89.612a20.407,20.407,0,0,0,7.606,3.533c5.139,1.332,12.082.443,19.966-1.084,7.91-1.429,17.369-3.294,28.207-1.805A59.218,59.218,0,0,1,138.664,98.4l-2.621,3.032a56.748,56.748,0,0,0-19.771-7.621c-9.921-1.769-19.313-.563-27.457.364-8.105,1.008-15.579,1.39-20.9-.4A20.465,20.465,0,0,1,60.4,89.612m5.635,5.812A30.159,30.159,0,0,0,71.3,97.413l21.194,52.641Zm22.789.956c-7.667.777-14.706.936-19.613-.862A21.037,21.037,0,0,1,62.2,91.572a21.482,21.482,0,0,0,7.072,3.6c4.843,1.533,11.561,1.081,19.132.017,7.575-.994,16.65-2.233,26.667-.292a59.418,59.418,0,0,1,19.828,7.846c-.472.55-.963,1.112-1.47,1.7A58.337,58.337,0,0,0,115,96.875c-9.484-2.063-18.472-1.2-26.17-.5m11.224,59.863,66.393,16.593s1.764,3.184,2.544,4.573Zm47.006-40.334a13.857,13.857,0,0,1,1.154,3.1,1.136,1.136,0,0,1-.52,1.2,5.32,5.32,0,0,1-3.556.228,5.466,5.466,0,0,0-2.1-.119c-.956.277-1.476,1.024-2.137,1.978-.17.246-.343.493-.525.735-.488.64-1.437,1.6-2.747,2.937-3.556,3.608-9.5,9.638-10.77,14.217a8.28,8.28,0,0,0-.221,1.084c-.209,1.387-.613,1.961-2.566,2.621-1.144.384-10.856,6.393-16.706,10.088a1.1,1.1,0,0,1-.6.173,1.132,1.132,0,0,1-.9-.451,1.118,1.118,0,0,1,.155-1.513,86.764,86.764,0,0,1,7.252-5.831c.843-.528,1.766-1.042,2.692-1.558,2.228-1.247,4.534-2.527,5.469-3.917a14.461,14.461,0,0,0,1.408-2.522,21.65,21.65,0,0,1,1.376-2.616,40.759,40.759,0,0,1,6.6-7.66,39.194,39.194,0,0,0,5.532-6.238,40.767,40.767,0,0,0,3.983-7.5c1.392-3.573,9.875-8.045,11.872-8.646a1.114,1.114,0,0,1,1.192.359,2.462,2.462,0,0,1,.611,2.214c-.394,1.6-2.428,2.439-4.213,3.192a10.522,10.522,0,0,0-1.622.767c-1.286.981-1.05,1.666-.108,3.679m-3.212,12.209c-1.1,5.272-11.017,24.124-19.5,30.189l-4.295-1.073c2.763-2.27,6.059-5.021,6.531-5.616,2.961-3.714,14.992-24.122,15.112-24.334a1.169,1.169,0,0,1,2.149.834m14.336-.922c4.587,9.552,5.668,18.664,6.232,26.22.505,7.572.825,14.04,2.891,18.734a18.385,18.385,0,0,0,4.992,6.862,19.194,19.194,0,0,1-5.416-6.819c-2.362-4.78-3.047-11.463-3.927-19.075-.9-7.6-2.357-16.533-6.98-25.618a33.565,33.565,0,0,0-3.77-6.5l1.615-1.493a50.576,50.576,0,0,1,4.363,7.692m.143-27.17c-.01.058-3.743-5.491-7.922-.752-1.326,1.517-43.367,43.9-49.638,50.7-2.568,2.651-2.842,2.567-2.842,2.567s-.613.019.676-1.526c6.235-6.83,45.672-52.3,47.572-54.636,3.909-4.818-2.753-7.375-2.682-7.4-.071.038,11.959-1.625,15.8-3.094-.856,3.623-.988,14.213-.963,14.136m4.856-26.287a1.009,1.009,0,0,1-.26.027,1.2,1.2,0,0,1-.882-2.009l6.994-7.623-6.994-7.621a1.2,1.2,0,0,1,.882-2,.934.934,0,0,1,.26.031l10.1,2.242,3.1-9.867a1.2,1.2,0,0,1,2.284.006l3.1,9.861,10.07-2.238a.909.909,0,0,1,.189-.035h.117a1.2,1.2,0,0,1,.826,2.049l-6.959,7.575,7,7.623a1.2,1.2,0,0,1-.883,2.009.987.987,0,0,1-.26-.027l-10.1-2.253-3.1,9.865a1.2,1.2,0,0,1-2.284,0l-3.1-9.865Zm30.19,35.218a.587.587,0,0,1,.082.7.6.6,0,0,1-.656.288l-7.886-1.76L182.48,115.9a.6.6,0,0,1-.572.419.611.611,0,0,1-.579-.419l-2.419-7.716-7.9,1.76a.6.6,0,0,1-.654-.288.6.6,0,0,1,.08-.7l5.469-5.965-5.469-5.96a.6.6,0,0,1-.08-.7.619.619,0,0,1,.654-.293l7.9,1.766,2.419-7.722a.631.631,0,0,1,1.151,0l2.428,7.722,7.886-1.766a.612.612,0,0,1,.656.293.589.589,0,0,1-.082.7l-5.466,5.96Z" fill="#fff"/>
    <path id="Path_38" data-name="Path 38" d="M91.693,157.085C89.268,156.74,76.255,168.254,70,173.819c-1.833,1.622-3.3,2.925-4.515,3.981,1.4,1.315,2.836,2.587,4.327,3.806,3.7-3.1,8.689-6.663,12.172-6.705,2.588-.025,6.019-1.425,8.742-3.563.087-.062.214-.152.378-.26.724-.493,2.069-1.409,2.06-2.764a3.514,3.514,0,0,0-.527-1.428,4.685,4.685,0,0,1-.618-1.674,2.76,2.76,0,0,1,1.071-2.178c.771-.812.921-1.1.766-1.48-.373-.654-.578-.614-1.035-.509a1.483,1.483,0,0,1-1.728-.6,2.441,2.441,0,0,1,.285-2.3c.381-.755.408-.945.315-1.062" fill="#fff"/>
    <path id="Path_39" data-name="Path 39" d="M172.326,189.048l3.982-3.213,2.716,14.874,5,6.2-3.514,2.837-5.005-6.2-14.159-5.638,4.141-3.343,9.3,4.384Z" fill="#fff"/>
    <path id="Path_40" data-name="Path 40" d="M172.326,189.048l3.982-3.213,2.716,14.874,5,6.2-3.514,2.837-5.005-6.2-14.159-5.638,4.141-3.343,9.3,4.384Z" fill="none" stroke="#fff" stroke-miterlimit="10" stroke-width="0.25"/>
    <path id="Path_41" data-name="Path 41" d="M195.1,196.637l-14.973-13.376,2.825-3.162,5.708,5.1,5.29-5.919-5.71-5.1,2.825-3.162,14.973,13.376-2.824,3.161-6.685-5.969L191.24,187.5l6.684,5.971Z" fill="#fff"/>
    <path id="Path_42" data-name="Path 42" d="M195.1,196.637l-14.973-13.376,2.825-3.162,5.708,5.1,5.29-5.919-5.71-5.1,2.825-3.162,14.973,13.376-2.824,3.161-6.685-5.969L191.24,187.5l6.684,5.971Z" fill="none" stroke="#fff" stroke-miterlimit="10" stroke-width="0.25"/>
    <path id="Path_43" data-name="Path 43" d="M33.109,174.352a5.687,5.687,0,0,0,1.293,6.53c2.534,2.532,5.045,2.81,7.645.209l8.335-8.339,1.955,1.954L44,183.045c-3.973,3.975-8.175,3.217-11.453-.059-4.055-4.055-2.942-7.447-2.11-9.51Z" fill="#fff"/>
    <path id="Path_44" data-name="Path 44" d="M33.109,174.352a5.687,5.687,0,0,0,1.293,6.53c2.534,2.532,5.045,2.81,7.645.209l8.335-8.339,1.955,1.954L44,183.045c-3.973,3.975-8.175,3.217-11.453-.059-4.055-4.055-2.942-7.447-2.11-9.51Z" fill="none" stroke="#fff" stroke-miterlimit="10" stroke-width="1.5"/>
    <path id="Path_45" data-name="Path 45" d="M69.067,190.448l-1.851,2.1L57.5,183.985l-3.375,3.829,4.9,4.317-1.851,2.1-4.9-4.315-3.923,4.451,10.083,8.885-1.849,2.1L44.425,194.637l12.846-14.582Z" fill="#fff"/>
    <path id="Path_46" data-name="Path 46" d="M69.067,190.448l-1.851,2.1L57.5,183.985l-3.375,3.829,4.9,4.317-1.851,2.1-4.9-4.315-3.923,4.451,10.083,8.885-1.849,2.1L44.425,194.637l12.846-14.582Z" fill="none" stroke="#fff" stroke-miterlimit="10" stroke-width="1.5"/>
    <path id="Path_47" data-name="Path 47" d="M76.087,194.877l3.406,18.354.047.023,6.752-13.135,2.457,1.263-8.883,17.283L77.408,217.4l-3.4-18.356-.049-.02L67.2,212.161,64.746,210.9l8.885-17.286Z" fill="#fff"/>
    <path id="Path_48" data-name="Path 48" d="M76.087,194.877l3.406,18.354.047.023,6.752-13.135,2.457,1.263-8.883,17.283L77.408,217.4l-3.4-18.356-.049-.02L67.2,212.161,64.746,210.9l8.885-17.286Z" fill="none" stroke="#fff" stroke-miterlimit="10" stroke-width="1.5"/>
    <path id="Path_49" data-name="Path 49" d="M91.153,216.948c1.051,1.149,2.385,3.667,6.874,4.709,2.518.583,6.171.473,6.71-1.85.721-3.105-2.8-3.92-5.14-4.463l-2.792-.648c-2.545-.59-5.21-2.7-4.415-6.131.933-4.014,5.842-4.789,9.287-3.99a12.908,12.908,0,0,1,7.057,4.351l-2.03,1.842c-1.375-1.329-2.445-2.721-5.588-3.451-2.341-.542-5.516-.351-6.032,1.872-.338,1.465.546,2.415,2.689,2.913l2.469.571c4.389,1.019,8.272,3.09,7.181,7.788-.921,3.96-5.54,4.964-10.2,3.879a12.134,12.134,0,0,1-8.388-5.989Z" fill="#fff"/>
    <path id="Path_50" data-name="Path 50" d="M91.153,216.948c1.051,1.149,2.385,3.667,6.874,4.709,2.518.583,6.171.473,6.71-1.85.721-3.105-2.8-3.92-5.14-4.463l-2.792-.648c-2.545-.59-5.21-2.7-4.415-6.131.933-4.014,5.842-4.789,9.287-3.99a12.908,12.908,0,0,1,7.057,4.351l-2.03,1.842c-1.375-1.329-2.445-2.721-5.588-3.451-2.341-.542-5.516-.351-6.032,1.872-.338,1.465.546,2.415,2.689,2.913l2.469.571c4.389,1.019,8.272,3.09,7.181,7.788-.921,3.96-5.54,4.964-10.2,3.879a12.134,12.134,0,0,1-8.388-5.989Z" fill="none" stroke="#fff" stroke-miterlimit="10" stroke-width="1.5"/>
    <path id="Path_51" data-name="Path 51" d="M130.038,207.288l0,2.8-12.954.019,0,5.1,6.529-.007.006,2.8-6.53.006.007,5.935,13.44-.019,0,2.8-16.2.02-.026-19.431Z" fill="#fff"/>
    <path id="Path_52" data-name="Path 52" d="M130.038,207.288l0,2.8-12.954.019,0,5.1,6.529-.007.006,2.8-6.53.006.007,5.935,13.44-.019,0,2.8-16.2.02-.026-19.431Z" fill="none" stroke="#fff" stroke-miterlimit="10" stroke-width="1.5"/>
    <path id="Path_53" data-name="Path 53" d="M138.248,205.94l14.746,11.449.049-.016-3.687-14.3,2.676-.689,4.855,18.818-2.677.693-14.746-11.453-.051.014,3.689,14.3-2.676.694-4.855-18.819Z" fill="#fff"/>
    <path id="Path_54" data-name="Path 54" d="M138.248,205.94l14.746,11.449.049-.016-3.687-14.3,2.676-.689,4.855,18.818-2.677.693-14.746-11.453-.051.014,3.689,14.3-2.676.694-4.855-18.819Z" fill="none" stroke="#fff" stroke-miterlimit="10" stroke-width="1.5"/>
  </g>
</svg>
